<?xml version="1.0" standalone="no"?><!DOCTYPE svg PUBLIC "-//W3C//DTD SVG 1.1//EN" "http://www.w3.org/Graphics/SVG/1.1/DTD/svg11.dtd"><svg t="1678111897627" class="icon" viewBox="0 0 1024 1024" version="1.1" xmlns="http://www.w3.org/2000/svg" p-id="7771" xmlns:xlink="http://www.w3.org/1999/xlink" width="200" height="200"><path d="M512.014 0C229.238 0 0 229.252 0 512.014c0 73.24 15.398 142.887 43.112 205.857 0.639 1.222 1.278 2.443 1.946 3.636v0.782a510.194 510.194 0 0 0 46.748 82.289v150.045h162.717a511.508 511.508 0 0 0 96.692 43.61C401.8 1014.936 455.834 1024 511.985 1024c212.207 0 394.257-129.094 471.929-313.004C1009.71 649.787 1024 582.57 1024 512.014 1024 229.252 794.762 0 512.014 0z m-79.959 596.036l-15.81 64.987c-59.504-36.99-99.121-102.97-99.121-178.186 0-16.733 1.96-32.97 5.653-48.58-13.665-14.205-22.06-33.524-22.06-54.788 0-43.68 35.413-79.121 79.107-79.121s79.135 35.44 79.135 79.12c0 43.254-34.702 78.397-77.814 79.108a148.465 148.465 0 0 0-1.989 24.261c0.029 45.456 20.597 86.11 52.899 113.199z m166.14 83.98c-11.989 28.437-40.129 48.41-72.942 48.41-43.694 0-79.107-35.428-79.107-79.108 0-43.694 35.413-79.106 79.107-79.106 30.768 0 57.402 17.528 70.499 43.154 44.916-23.807 76.095-70.115 78.468-123.91l61.776-20.426c0.299 4.56 0.44 9.177 0.44 13.822 0.015 90.712-57.6 167.958-138.24 197.163z m77.303-216.568c-43.694 0-79.135-35.427-79.135-79.121a79.323 79.323 0 0 1 5.355-28.666c-21.96-12.969-47.572-20.426-74.902-20.426-17.004 0-33.325 2.883-48.538 8.168l-36.166-52.43c25.896-11.45 54.561-17.814 84.704-17.814 44.49 0 85.754 13.879 119.69 37.53a78.865 78.865 0 0 1 29.006-5.498c43.694 0 79.107 35.427 79.107 79.122s-35.427 79.135-79.121 79.135z" fill="#333333" p-id="7772"></path></svg>